<svg width="68" height="68" viewBox="0 0 68 68" fill="none" xmlns="http://www.w3.org/2000/svg">
<g filter="url(#filter0_d_1417_2)">
<rect x="3" y="3" width="60" height="60" rx="10" fill="white"/>
</g>
<path d="M18.625 52.995C18.7908 52.995 18.9497 52.9291 19.0669 52.8119C19.1842 52.6947 19.25 52.5357 19.25 52.37V45.4662C19.25 44.1 19.9787 42.8125 21.1512 42.11L26.0438 39.1737L28.7288 42.53C28.7838 42.5985 28.8526 42.6548 28.9308 42.6951C29.009 42.7353 29.0947 42.7587 29.1825 42.7637L29.2175 42.765C29.3825 42.765 29.5425 42.7 29.66 42.5825L30.8625 41.38V42.1412C30.8625 42.307 30.9283 42.4659 31.0456 42.5832C31.1628 42.7004 31.3217 42.7662 31.4875 42.7662H31.5462L30.5038 52.3037C30.4934 52.386 30.4995 52.4696 30.5217 52.5496C30.544 52.6295 30.5819 52.7042 30.6334 52.7694C30.6848 52.8345 30.7487 52.8887 30.8213 52.9289C30.8939 52.9691 30.9738 52.9944 31.0563 53.0033C31.1388 53.0123 31.2223 53.0047 31.3018 52.9811C31.3814 52.9575 31.4554 52.9182 31.5197 52.8657C31.5839 52.8131 31.637 52.7483 31.6759 52.675C31.7148 52.6017 31.7387 52.5214 31.7462 52.4387L32.8038 42.7662H33.1962L34.2538 52.4387C34.2717 52.6036 34.3543 52.7547 34.4836 52.8587C34.6129 52.9626 34.7782 53.011 34.9431 52.9931C35.1081 52.9752 35.2591 52.8925 35.3631 52.7632C35.4671 52.6339 35.5154 52.4686 35.4975 52.3037L34.455 42.7662H34.5138C34.6795 42.7662 34.8385 42.7004 34.9557 42.5832C35.0729 42.4659 35.1388 42.307 35.1388 42.1412V41.38L36.3413 42.5825C36.3994 42.6405 36.4684 42.6864 36.5443 42.7178C36.6203 42.7491 36.7016 42.7651 36.7838 42.765L36.8188 42.7637C36.9065 42.7587 36.9923 42.7353 37.0705 42.6951C37.1486 42.6548 37.2175 42.5985 37.2725 42.53L39.9575 39.1737L44.8513 42.11C45.429 42.4596 45.9071 42.952 46.2396 43.5397C46.5721 44.1275 46.7479 44.7909 46.75 45.4662V52.37C46.75 52.5357 46.8158 52.6947 46.9331 52.8119C47.0503 52.9291 47.2092 52.995 47.375 52.995C47.5408 52.995 47.6997 52.9291 47.8169 52.8119C47.9342 52.6947 48 52.5357 48 52.37V45.4662C48 43.6625 47.0387 41.9662 45.4925 41.0387L40.21 37.87L38.23 35.67C38.1476 35.5819 38.0409 35.5202 37.9235 35.4926C37.806 35.465 37.683 35.4728 37.57 35.515V33.06C38.4795 32.3618 39.2164 31.464 39.7237 30.4358C40.2311 29.4076 40.4954 28.2765 40.4962 27.13V24.29L41.7025 18.7075C41.7935 18.2139 41.7848 17.7071 41.6768 17.217C41.5688 16.7269 41.3638 16.2633 41.0737 15.8537C40.7862 15.4423 40.4191 15.0927 39.9943 14.8254C39.5694 14.5581 39.0953 14.3786 38.6 14.2975L31.1525 13.0562C30.6193 12.9671 30.0732 12.9954 29.552 13.1389C29.0309 13.2825 28.5473 13.5379 28.135 13.8875C27.4314 14.4848 26.9762 15.3233 26.8587 16.2387C26.1212 16.3762 25.4538 16.77 24.9725 17.365C24.6709 17.7385 24.4577 18.1754 24.3486 18.6429C24.2395 19.1104 24.2374 19.5965 24.3425 20.065L25.4962 24.2775V27.1287C25.4962 29.5425 26.6463 31.6875 28.4225 33.06V35.5137C28.3101 35.4735 28.1885 35.4669 28.0724 35.4946C27.9563 35.5224 27.8508 35.5833 27.7687 35.67L25.79 37.8687L20.5075 41.0387C19.7445 41.4992 19.113 42.1485 18.6738 42.924C18.2346 43.6995 18.0025 44.575 18 45.4662V52.37C18 52.5357 18.0658 52.6947 18.1831 52.8119C18.3003 52.9291 18.4592 52.995 18.625 52.995ZM33.8875 40.2487V41.515H32.1125V40.2487C32.1125 40.2137 32.0975 40.1825 32.0925 40.1487L33 39.2412L33.9087 40.15C33.9025 40.1825 33.8875 40.2137 33.8875 40.2487V40.2487ZM38.99 38.3812L36.7313 41.205L34.0675 38.5412L37.6137 36.8525L38.99 38.3812ZM25.9437 18.1512C26.1243 17.927 26.353 17.7462 26.6128 17.6222C26.8727 17.4982 27.1571 17.4342 27.445 17.435C27.79 17.435 28.07 17.0712 28.07 16.7262C28.0693 16.4016 28.1328 16.0801 28.2567 15.78C28.3805 15.48 28.5624 15.2073 28.7919 14.9777C29.0214 14.7482 29.2939 14.5661 29.5939 14.4421C29.8939 14.3181 30.2154 14.2545 30.54 14.255C30.6765 14.2551 30.8128 14.2664 30.9475 14.2887L38.395 15.53C39.07 15.6425 39.6575 16.0125 40.0513 16.5712C40.445 17.1312 40.595 17.81 40.4763 18.4625L39.54 22.7937L38.36 21.3275V19.9687C38.36 19.803 38.2942 19.644 38.1769 19.5268C38.0597 19.4096 37.9008 19.3437 37.735 19.3437H28.2575C28.0917 19.3437 27.9328 19.4096 27.8156 19.5268C27.6983 19.644 27.6325 19.803 27.6325 19.9687V21.3287L26.4037 22.86L25.5563 19.7687C25.435 19.1962 25.5762 18.6062 25.9437 18.1512V18.1512ZM26.7462 27.1287V24.4312L28.7463 21.94C28.8351 21.8289 28.8836 21.6909 28.8837 21.5487V20.5937H37.1112V21.5487C37.1112 21.691 37.1597 21.829 37.2488 21.94L39.2475 24.4212V27.1275C39.2475 30.5737 36.4438 33.3775 32.9975 33.3775C29.5513 33.3775 26.7462 30.575 26.7462 27.1287V27.1287ZM32.9962 34.6287C34.1912 34.6287 35.3175 34.3412 36.32 33.8425V36.0837L33 37.665L29.6725 36.08V33.8412C30.6763 34.34 31.8025 34.6287 32.9962 34.6287V34.6287ZM28.3863 36.8525L31.9325 38.5412L29.2688 41.205L27.01 38.3812L28.3863 36.8525V36.8525Z" fill="#582D7F"/>
<defs>
<filter id="filter0_d_1417_2" x="0" y="0" width="68" height="68" filterUnits="userSpaceOnUse" color-interpolation-filters="sRGB">
<feFlood flood-opacity="0" result="BackgroundImageFix"/>
<feColorMatrix in="SourceAlpha" type="matrix" values="0 0 0 0 0 0 0 0 0 0 0 0 0 0 0 0 0 0 127 0" result="hardAlpha"/>
<feOffset dx="1" dy="1"/>
<feGaussianBlur stdDeviation="2"/>
<feComposite in2="hardAlpha" operator="out"/>
<feColorMatrix type="matrix" values="0 0 0 0 0 0 0 0 0 0 0 0 0 0 0 0 0 0 0.2 0"/>
<feBlend mode="normal" in2="BackgroundImageFix" result="effect1_dropShadow_1417_2"/>
<feBlend mode="normal" in="SourceGraphic" in2="effect1_dropShadow_1417_2" result="shape"/>
</filter>
</defs>
</svg>
