<?xml version="1.0" encoding="utf-8"?>
<!-- Generator: Adobe Illustrator 26.1.0, SVG Export Plug-In . SVG Version: 6.00 Build 0)  -->
<svg version="1.1" id="Layer_1" xmlns="http://www.w3.org/2000/svg" xmlns:xlink="http://www.w3.org/1999/xlink" x="0px" y="0px"
	 viewBox="0 0 177.6 177.6" style="enable-background:new 0 0 177.6 177.6;" xml:space="preserve">
<style type="text/css">
	.st0{fill:#582D7F;}
	.st1{fill:#82027E;}
</style>
<g id="Layer_2_00000003106590551762329520000013459872811448552075_">
	<g id="elements">
		<path class="st0" d="M88.8,0C39.8,0,0,39.8,0,88.8s39.8,88.8,88.8,88.8s88.8-39.8,88.8-88.8C177.6,39.8,137.9,0,88.8,0
			C88.8,0,88.8,0,88.8,0z M101.6,140.5c-34.9,0-63.2-28.3-63.2-63.2s28.3-63.2,63.2-63.2c34.9,0,63.2,28.3,63.2,63.2
			C164.7,112.2,136.4,140.5,101.6,140.5C101.6,140.5,101.6,140.5,101.6,140.5z"/>
		<path d="M151.8,64.6c0,21.1-17.1,38.3-38.3,38.3c-21.1,0-38.3-17.1-38.3-38.3c0-21.1,17.1-38.3,38.3-38.3c0,0,0,0,0,0
			C134.7,26.3,151.8,43.4,151.8,64.6z"/>
		<path class="st1" d="M84.5,101.5c0,10-8.1,18.1-18.1,18.1s-18.1-8.1-18.1-18.1s8.1-18.1,18.1-18.1c0,0,0,0,0,0
			C76.4,83.4,84.5,91.5,84.5,101.5C84.5,101.5,84.5,101.5,84.5,101.5z"/>
		<path class="st1" d="M74.2,45.8c0,6.3-5.1,11.5-11.5,11.5s-11.5-5.1-11.5-11.5s5.1-11.5,11.5-11.5c0,0,0,0,0,0
			C69,34.3,74.2,39.4,74.2,45.8C74.2,45.8,74.2,45.8,74.2,45.8z"/>
		<path class="st1" d="M135.2,116.7c0,5.6-4.6,10.2-10.2,10.2s-10.2-4.6-10.2-10.2c0-5.6,4.6-10.2,10.2-10.2c0,0,0,0,0,0
			C130.6,106.5,135.2,111.1,135.2,116.7z"/>
	</g>
</g>
</svg>
